<svg width="12" height="12" viewBox="0 0 12 12" fill="none" xmlns="http://www.w3.org/2000/svg">
<path d="M3.27483 4.46108L1.4874 6.00006L3.27483 7.53904C3.3341 7.58924 3.38318 7.65107 3.41922 7.72096C3.45526 7.79086 3.47755 7.86743 3.48481 7.94627C3.49207 8.02511 3.48416 8.10466 3.46152 8.18032C3.43888 8.25598 3.40198 8.32626 3.35292 8.38712C3.30387 8.44797 3.24364 8.49818 3.17572 8.53486C3.10779 8.57154 3.03351 8.59397 2.95716 8.60084C2.8808 8.60771 2.80389 8.59889 2.73085 8.5749C2.65781 8.5509 2.59009 8.5122 2.5316 8.46103L0.209004 6.46106C0.14359 6.40475 0.0909593 6.33427 0.0548409 6.2546C0.0187224 6.17494 0 6.08804 0 6.00006C0 5.91209 0.0187224 5.82519 0.0548409 5.74553C0.0909593 5.66586 0.14359 5.59538 0.209004 5.53907L2.5316 3.5391C2.65008 3.43876 2.80214 3.39087 2.95465 3.40587C3.10715 3.42086 3.24774 3.49752 3.34579 3.61915C3.44384 3.74078 3.4914 3.89752 3.4781 4.05522C3.46481 4.21292 3.39175 4.3588 3.27483 4.46108ZM11.791 5.53907L9.4684 3.5391C9.40991 3.48792 9.34219 3.44923 9.26915 3.42523C9.19611 3.40124 9.11919 3.39242 9.04284 3.39929C8.96649 3.40616 8.89221 3.42859 8.82428 3.46527C8.75636 3.50195 8.69613 3.55216 8.64708 3.61301C8.59803 3.67386 8.56112 3.74415 8.53848 3.81981C8.51584 3.89547 8.50793 3.97502 8.51519 4.05386C8.52245 4.1327 8.54474 4.20927 8.58078 4.27916C8.61682 4.34906 8.6659 4.41089 8.72517 4.46108L10.5126 6.00006L8.72517 7.53904C8.6659 7.58924 8.61682 7.65107 8.58078 7.72096C8.54474 7.79086 8.52245 7.86743 8.51519 7.94627C8.50793 8.02511 8.51584 8.10466 8.53848 8.18032C8.56112 8.25598 8.59803 8.32626 8.64708 8.38712C8.69613 8.44797 8.75636 8.49818 8.82428 8.53486C8.89221 8.57154 8.96649 8.59397 9.04284 8.60084C9.11919 8.60771 9.19611 8.59889 9.26915 8.5749C9.34219 8.5509 9.40991 8.5122 9.4684 8.46103L11.791 6.46106C11.8564 6.40475 11.909 6.33427 11.9452 6.2546C11.9813 6.17494 12 6.08804 12 6.00006C12 5.91209 11.9813 5.82519 11.9452 5.74553C11.909 5.66586 11.8564 5.59538 11.791 5.53907ZM7.74678 1.03613C7.67511 1.00919 7.599 0.997115 7.5228 1.00058C7.44661 1.00405 7.37182 1.02299 7.30271 1.05633C7.23361 1.08966 7.17153 1.13674 7.12003 1.19487C7.06854 1.25301 7.02863 1.32105 7.00259 1.39512L3.9058 10.195C3.8533 10.3445 3.86041 10.5095 3.92556 10.6536C3.99071 10.7977 4.10856 10.9091 4.25322 10.9635C4.31673 10.9877 4.3839 11.0001 4.45161 11C4.57082 11 4.68715 10.9621 4.7848 10.8915C4.88245 10.8208 4.95668 10.7208 4.99741 10.605L8.0942 1.80512C8.12027 1.73106 8.13196 1.65241 8.12861 1.57368C8.12525 1.49495 8.10692 1.41767 8.07466 1.34626C8.0424 1.27485 7.99683 1.2107 7.94058 1.15749C7.88432 1.10428 7.81847 1.06304 7.74678 1.03613Z" fill="#F8FAF6"/>
</svg>
