<svg width="16" height="16" viewBox="0 0 16 16" fill="none" xmlns="http://www.w3.org/2000/svg">
    <g clip-path="url(#clip0_6117_38007)">
        <path
            d="M14.5 0.5H1.5C1.23478 0.5 0.98043 0.605357 0.792893 0.792893C0.605357 0.98043 0.5 1.23478 0.5 1.5V14.5C0.5 14.7652 0.605357 15.0196 0.792893 15.2071C0.98043 15.3946 1.23478 15.5 1.5 15.5H14.5C14.7652 15.5 15.0196 15.3946 15.2071 15.2071C15.3946 15.0196 15.5 14.7652 15.5 14.5V1.5C15.5 1.23478 15.3946 0.98043 15.2071 0.792893C15.0196 0.605357 14.7652 0.5 14.5 0.5ZM4.9435 13.297H2.687V6.125H4.9435V13.297ZM3.815 5.1405C3.55558 5.13971 3.30222 5.06206 3.08691 4.91736C2.87159 4.77266 2.70399 4.5674 2.60526 4.32751C2.50654 4.08761 2.48111 3.82384 2.53221 3.5695C2.5833 3.31516 2.70862 3.08167 2.89234 2.89852C3.07605 2.71536 3.30992 2.59075 3.56441 2.54043C3.8189 2.49011 4.0826 2.51634 4.32219 2.6158C4.56179 2.71525 4.76654 2.88348 4.91058 3.09923C5.05462 3.31498 5.1315 3.56858 5.1315 3.828C5.13157 4.00072 5.09753 4.17175 5.03134 4.33128C4.96516 4.49081 4.86813 4.6357 4.74581 4.75764C4.6235 4.87958 4.47831 4.97618 4.31858 5.04188C4.15885 5.10758 3.98771 5.14109 3.815 5.1405ZM13.3105 13.297H11.1V9.828C11.1 8.9845 11.1 7.953 9.925 7.953C8.75 7.953 8.6085 8.844 8.6085 9.781V13.344H6.4V6.125H8.468V7.1095H8.515C8.72828 6.74075 9.03779 6.43691 9.41041 6.23047C9.78304 6.02404 10.2048 5.92277 10.6305 5.9375C12.887 5.9375 13.31 7.4375 13.31 9.3595L13.3105 13.297Z"
            fill="white" />
    </g>
    <defs>
        <clipPath id="clip0_6117_38007">
            <rect width="16" height="16" fill="white" />
        </clipPath>
    </defs>
</svg>