<svg width="104" height="20" viewBox="0 0 104 20" fill="none" xmlns="http://www.w3.org/2000/svg">
<path d="M23.3373 16.6667H29.1753C31.4713 16.6667 32.6613 15.5467 32.6613 13.8247C32.6613 12.4947 31.8773 11.7247 31.0093 11.4167C31.7233 11.1507 32.4093 10.4507 32.4093 9.42867C32.4093 7.79067 31.2613 6.72667 29.0773 6.72667H23.3373V16.6667ZM28.6993 8.64467C29.5393 8.64467 29.9873 8.93867 29.9873 9.62467C29.9873 10.2967 29.5253 10.6047 28.6993 10.6047H25.6753V8.64467H28.6993ZM28.7553 12.5227C29.7493 12.5227 30.2393 12.8867 30.2393 13.6287C30.2393 14.3707 29.7493 14.7487 28.7553 14.7487H25.6753V12.5227H28.7553Z" fill="#F8FAF6"/>
<path d="M42.1353 14.5667H36.2693V6.72667H33.8893V16.6667H42.1353V14.5667Z" fill="#F8FAF6"/>
<path d="M47.4932 16.8347C50.4612 16.8347 52.7572 14.7207 52.7572 11.6967C52.7572 8.63067 50.4612 6.55867 47.4932 6.55867C44.5112 6.55867 42.2152 8.63067 42.2152 11.6967C42.2152 14.7207 44.5112 16.8347 47.4932 16.8347ZM47.4932 14.7067C45.7572 14.7067 44.6372 13.3907 44.6372 11.6967C44.6372 10.0167 45.7572 8.68667 47.4932 8.68667C49.2432 8.68667 50.3352 10.0307 50.3352 11.6967C50.3352 13.3767 49.2432 14.7067 47.4932 14.7067Z" fill="#F8FAF6"/>
<path d="M58.6151 16.8347C61.9611 16.8347 63.1371 14.4687 63.3191 13.4747H60.9111C60.6871 13.8527 60.0851 14.6927 58.6151 14.6927C56.9631 14.6927 55.9551 13.3347 55.9551 11.6967C55.9551 10.0587 56.9631 8.70067 58.6151 8.70067C59.9871 8.70067 60.6731 9.54067 60.8971 9.91867H63.3191C63.0951 8.78467 61.8351 6.55867 58.6151 6.55867C55.6331 6.55867 53.5191 8.72867 53.5191 11.6967C53.5191 14.6647 55.6331 16.8347 58.6151 16.8347Z" fill="#F8FAF6"/>
<path d="M71.4651 16.6667H74.7131L69.4351 11.5147L74.4891 6.72667H71.3951L66.8451 11.0247V6.72667H64.4651V16.6667H66.8451V12.2007L71.4651 16.6667Z" fill="#F8FAF6"/>
<path d="M81.8449 6.72667H79.4649V13.1387C79.4649 14.0487 78.9889 14.7207 78.0369 14.7207C77.0709 14.7207 76.6089 14.0487 76.6089 13.1387V10.6887H74.3549V13.3487C74.3549 15.4907 75.6009 16.8627 78.0369 16.8627C80.4589 16.8627 81.8449 15.4907 81.8449 13.3487V6.72667Z" fill="#F8FAF6"/>
<path d="M88.3202 16.8347C91.2882 16.8347 93.5842 14.7207 93.5842 11.6967C93.5842 8.63067 91.2882 6.55867 88.3202 6.55867C85.3382 6.55867 83.0422 8.63067 83.0422 11.6967C83.0422 14.7207 85.3382 16.8347 88.3202 16.8347ZM88.3202 14.7067C86.5842 14.7067 85.4642 13.3907 85.4642 11.6967C85.4642 10.0167 86.5842 8.68667 88.3202 8.68667C90.0702 8.68667 91.1622 10.0307 91.1622 11.6967C91.1622 13.3767 90.0702 14.7067 88.3202 14.7067Z" fill="#F8FAF6"/>
<path d="M99.7825 12.4947L103.996 6.72667H101.322L98.6065 10.3387L95.9045 6.72667H92.8805L97.2905 12.4807V16.6667H99.7825V12.4947Z" fill="#F8FAF6"/>
<path d="M3.33333 0C1.49238 0 1.45705e-07 1.49238 1.45705e-07 3.33333L0 13.3333C-8.04704e-08 15.1743 1.49238 16.6667 3.33333 16.6667V6.66798C3.33333 6.66754 3.33333 6.66711 3.33333 6.66667L3.33333 0Z" fill="#F8FAF6"/>
<path d="M13.3333 10V13.3333V16.6667C15.1743 16.6667 16.6667 15.1743 16.6667 13.3333V11.6667V10C16.6667 8.15905 15.1743 6.66667 13.3333 6.66667H6.66667H3.33333L3.33333 6.66798C3.33404 8.50833 4.82616 10 6.66667 10H13.3333Z" fill="#F8FAF6"/>
<path d="M6.66667 20H10C11.8409 20 13.3333 18.5076 13.3333 16.6667H10H6.66667H3.33333C3.33333 18.5076 4.82572 20 6.66667 20Z" fill="#F8FAF6"/>
<path d="M23.3341 11.5999C21.4932 11.5999 20.0008 13.0923 20.0008 14.9333C20.0008 13.0923 18.5084 11.5999 16.6675 11.5999C18.5084 11.5999 20.0008 10.1076 20.0008 8.2666C20.0008 10.1076 21.4932 11.5999 23.3341 11.5999Z" fill="#F8FAF6"/>
</svg>
